<?xml version="1.0" encoding="UTF-8" standalone="no"?>
<!-- Created with Inkscape (http://www.inkscape.org/) -->

<svg
   width="64.699539mm"
   height="30.426859mm"
   viewBox="0 0 64.699539 30.426859"
   version="1.1"
   id="svg1"
   xml:space="preserve"
   sodipodi:docname="agrodemoplot-logo.svg"
   xmlns:inkscape="http://www.inkscape.org/namespaces/inkscape"
   xmlns:sodipodi="http://sodipodi.sourceforge.net/DTD/sodipodi-0.dtd"
   xmlns="http://www.w3.org/2000/svg"
   xmlns:svg="http://www.w3.org/2000/svg"><sodipodi:namedview
     id="namedview1"
     pagecolor="#ffffff"
     bordercolor="#000000"
     borderopacity="0.25"
     inkscape:showpageshadow="2"
     inkscape:pageopacity="0.0"
     inkscape:pagecheckerboard="0"
     inkscape:deskcolor="#d1d1d1"
     inkscape:document-units="mm"><inkscape:page
       x="0"
       y="0"
       width="64.699539"
       height="30.426859"
       id="page2"
       margin="0"
       bleed="0" /></sodipodi:namedview><defs
     id="defs1" /><g
     id="text24"
     style="font-size:26.4583px;line-height:0.8;font-family:'Krana Fat';-inkscape-font-specification:'Krana Fat';fill:#00a948;fill-opacity:1;stroke-width:0;stroke-linecap:round"
     aria-label="AGRO&#10;DEMO&#10;PLOT"
     transform="matrix(0.431035,0,0,0.431035,58.066747,45.174513)"><path
       d="m -44.725204,-84.061693 c 0.608541,0 0.820207,0.132291 1.137707,0.714374 l 0.661457,1.217082 c 0.3175,0.582082 0.529166,0.714374 1.137707,0.714374 h 3.624787 c 0.476249,0 0.634999,-0.3175 0.423333,-0.740832 l -9.286863,-17.621228 c -0.211667,-0.396877 -0.608541,-0.343957 -0.793749,0 l -9.286863,17.621228 c -0.211667,0.423332 -0.05292,0.740832 0.423332,0.740832 h 3.598329 c 0.608541,0 0.820207,-0.132292 1.137707,-0.714374 l 0.661457,-1.217082 c 0.3175,-0.582083 0.529166,-0.714374 1.137707,-0.714374 z m -1.481665,-4.603744 c 0.264583,0.449791 0.132291,0.687916 -0.370416,0.687916 h -1.71979 c -0.502707,0 -0.634999,-0.238125 -0.370416,-0.687916 l 0.873124,-1.534582 c 0.211666,-0.396874 0.529166,-0.396874 0.740832,0 z m 24.791425,7.249574 c 0.423333,0 0.582083,-0.185208 0.582083,-0.608541 v -8.572489 c 0,-0.423333 -0.15875,-0.608541 -0.582083,-0.608541 h -3.386662 c -0.423333,0 -0.582083,0.185208 -0.582083,0.608541 v 2.910413 c 0,0.582083 -0.05292,0.767291 -0.449791,1.031874 -0.793749,0.529166 -1.772706,0.76729 -3.016246,0.76729 -2.80458,0 -4.603744,-2.063747 -4.603744,-4.788952 0,-2.513538 1.852081,-4.497911 4.418536,-4.497911 1.719789,0 2.96333,0.714374 3.915828,2.090206 0.264583,0.396874 0.529166,0.370416 0.926041,0.185208 l 3.016246,-1.428748 c 0.529166,-0.264583 0.449791,-0.687916 0.185208,-1.217082 -1.40229,-2.936871 -4.550827,-4.656665 -8.069781,-4.656665 -5.344577,0 -9.233947,3.995207 -9.233947,9.524992 0,5.529785 3.915828,9.524988 9.260405,9.524988 1.613956,0 2.619372,-0.3175 3.280829,-0.608541 0.502708,-0.211666 0.873124,-0.476249 1.217082,0.05292 0.185208,0.291041 0.423333,0.291041 0.873124,0.291041 z m 7.514169,-6.164784 c 0,-0.476249 0.423333,-0.555624 0.687916,-0.211666 l 4.6037442,5.820826 c 0.3968745,0.502707 0.6614575,0.555624 1.1377069,0.555624 h 4.2597862 c 0.529166,0 0.6614575,-0.529166 0.3704162,-0.899582 l -5.0535352,-6.164784 c -0.2381247,-0.291041 -0.2381247,-0.555624 0,-0.793749 1.3493733,-1.269998 2.0637474,-2.698747 2.0637474,-4.762494 0,-3.57187 -1.9843725,-5.900201 -6.2970757,-5.900201 h -5.767909 c -0.423333,0 -0.582083,0.185208 -0.582083,0.608541 v 17.303728 c 0,0.423333 0.15875,0.608541 0.582083,0.608541 h 3.413121 c 0.423332,0 0.582082,-0.185208 0.582082,-0.608541 z m 0.291042,-5.079993 c -0.423333,0 -0.582083,-0.185208 -0.582083,-0.608541 v -1.269999 c 0,-0.423332 0.15875,-0.608541 0.582083,-0.608541 h 2.037289 c 0.687915,0 1.217081,0.449792 1.217081,1.243541 0,0.820207 -0.529166,1.24354 -1.217081,1.24354 z m 19.3674778,11.50936 c 5.3445762,0 9.2604052,-4.021662 9.2604052,-9.551446 0,-5.529785 -3.915829,-9.498534 -9.2604052,-9.498534 -5.3445765,0 -9.2604048,3.995207 -9.2604048,9.524992 0,5.529785 3.9158283,9.524988 9.2604048,9.524988 z m 0,-14.022899 c 2.5929134,0 4.4185362,2.010831 4.4185362,4.497911 0,2.48708 -1.8256228,4.497911 -4.4185362,4.497911 -2.5929133,0 -4.418536,-2.037289 -4.418536,-4.524369 0,-2.48708 1.8256227,-4.471453 4.418536,-4.471453 z"
       id="path26"
       style="fill:#00a948;fill-opacity:1" /><path
       d="m -55.176233,-78.770033 c -0.423332,0 -0.582082,0.185208 -0.582082,0.608541 v 17.303728 c 0,0.423333 0.15875,0.608541 0.582082,0.608541 h 6.164784 c 5.265202,0 8.863531,-3.915828 8.863531,-9.286863 0,-5.371035 -3.598329,-9.233947 -8.863531,-9.233947 z m 3.968745,5.556243 c 0,-0.423333 0.15875,-0.608541 0.582083,-0.608541 h 1.137707 c 2.80458,0 4.497911,1.666873 4.497911,4.312703 0,2.64583 -1.693331,4.312703 -4.497911,4.312703 h -1.137707 c -0.423333,0 -0.582083,-0.185208 -0.582083,-0.608541 z m 23.574356,5.847284 c 0.423333,0 0.582083,-0.185208 0.582083,-0.608541 v -3.042704 c 0,-0.423333 -0.15875,-0.608541 -0.582083,-0.608541 h -5.741451 c -0.423333,0 -0.582083,-0.185208 -0.582083,-0.608541 v -0.978957 c 0,-0.423333 0.15875,-0.608541 0.582083,-0.608541 h 7.064366 c 0.423333,0 0.582083,-0.185208 0.582083,-0.608541 v -3.73062 c 0,-0.423333 -0.15875,-0.608541 -0.582083,-0.608541 h -11.615194 c -0.423332,0 -0.582082,0.185208 -0.582082,0.608541 v 17.303728 c 0,0.423333 0.15875,0.608541 0.582082,0.608541 h 11.615194 c 0.423333,0 0.582083,-0.185208 0.582083,-0.608541 v -3.73062 c 0,-0.423333 -0.15875,-0.608541 -0.582083,-0.608541 h -7.064366 c -0.423333,0 -0.582083,-0.185208 -0.582083,-0.608541 v -0.952499 c 0,-0.423333 0.15875,-0.608541 0.582083,-0.608541 z m 18.3091422,6.508742 c 0,0.423333 0.1587498,0.608541 0.5820826,0.608541 h 3.3866623 c 0.4233328,0 0.5820826,-0.185208 0.5820826,-0.608541 v -17.303728 c 0,-0.423333 -0.1587498,-0.608541 -0.5820826,-0.608541 h -2.1695806 c -0.6085408,0 -0.7937489,0.185208 -1.1641651,0.714374 l -4.9212434,6.297076 c -0.291042,0.370416 -0.635,0.343958 -0.899583,0 l -4.921243,-6.297076 c -0.370416,-0.529166 -0.555625,-0.714374 -1.164165,-0.714374 h -2.169581 c -0.423333,0 -0.582083,0.185208 -0.582083,0.608541 v 17.303728 c 0,0.423333 0.15875,0.608541 0.582083,0.608541 h 3.386662 c 0.423333,0 0.582083,-0.185208 0.582083,-0.608541 v -7.699365 c 0,-0.476249 0.449791,-0.476249 0.661457,-0.185208 l 3.624787,4.577286 c 0.264583,0.343958 0.608541,0.343958 0.899583,0 l 3.6247867,-4.577286 c 0.2116664,-0.291041 0.6614575,-0.238125 0.6614575,0.185208 z m 15.4516456,0.873124 c 5.3445762,0 9.2604052,-4.021662 9.2604052,-9.551446 0,-5.529785 -3.915829,-9.49853 -9.2604052,-9.49853 -5.34457658,0 -9.2604049,3.995203 -9.2604049,9.524988 0,5.529785 3.91582832,9.524988 9.2604049,9.524988 z m 0,-14.022899 c 2.5929133,0 4.4185362,2.010831 4.4185362,4.497911 0,2.48708 -1.8256229,4.497911 -4.4185362,4.497911 -2.5929134,0 -4.4185361,-2.037289 -4.4185361,-4.524369 0,-2.48708 1.8256227,-4.471453 4.4185361,-4.471453 z"
       id="path27"
       style="fill:#00a948;fill-opacity:1" /><path
       d="m -49.381865,-45.538408 c 3.88937,0 6.323534,-1.931456 6.323534,-5.979576 0,-4.04812 -2.434164,-6.085409 -6.323534,-6.085409 h -5.794368 c -0.423332,0 -0.582082,0.15875 -0.582082,0.582083 v 17.356644 c 0,0.423333 0.15875,0.582083 0.582082,0.582083 h 3.492496 c 0.423333,0 0.582083,-0.15875 0.582083,-0.582083 v -5.29166 c 0,-0.423332 0.158749,-0.582082 0.582082,-0.582082 z m 0.343958,-7.276032 c 0.687916,0 1.217082,0.449791 1.217082,1.24354 0,0.820207 -0.529166,1.24354 -1.217082,1.24354 h -1.746248 c -0.423333,0 -0.582082,-0.185208 -0.582082,-0.608541 v -1.296457 c 0,-0.423333 0.158749,-0.582082 0.582082,-0.582082 z m 12.435396,-4.180412 c 0,-0.423333 -0.158749,-0.608541 -0.582082,-0.608541 h -3.651246 c -0.423332,0 -0.582082,0.185208 -0.582082,0.608541 v 17.303728 c 0,0.423333 0.15875,0.608541 0.582082,0.608541 h 11.615194 c 0.423333,0 0.582083,-0.185208 0.582083,-0.608541 v -3.757078 c 0,-0.423333 -0.15875,-0.608541 -0.582083,-0.608541 h -6.799783 c -0.423333,0 -0.582083,-0.185208 -0.582083,-0.608541 z M -18.954807,-38.818 c 5.344577,0 9.2604053,-4.021662 9.2604053,-9.551446 0,-5.529785 -3.9158283,-9.49853 -9.2604053,-9.49853 -5.344576,0 -9.260404,3.995204 -9.260404,9.524988 0,5.529785 3.915828,9.524988 9.260404,9.524988 z m 0,-14.022899 c 2.592914,0 4.418536,2.010831 4.418536,4.497911 0,2.48708 -1.825622,4.497911 -4.418536,4.497911 -2.592913,0 -4.418536,-2.037289 -4.418536,-4.524369 0,-2.48708 1.825623,-4.471453 4.418536,-4.471453 z m 14.5256329,0.211667 c 0.4233328,0 0.5820826,0.185208 0.5820826,0.60854 v 12.329568 c 0,0.423333 0.1587498,0.608541 0.5820826,0.608541 h 3.49249557 c 0.42333279,0 0.58208259,-0.185208 0.58208259,-0.608541 v -12.329568 c 0,-0.423332 0.1587498,-0.60854 0.58208264,-0.60854 h 4.3656194 c 0.4233328,0 0.5820826,-0.185208 0.5820826,-0.608541 v -3.757079 c 0,-0.423333 -0.1587498,-0.608541 -0.5820826,-0.608541 H -8.7947935 c -0.4233328,0 -0.5820826,0.185208 -0.5820826,0.608541 v 3.757079 c 0,0.423333 0.1587498,0.608541 0.5820826,0.608541 z"
       id="path28"
       style="fill:#00a948;fill-opacity:1" /></g><path
     id="path44"
     style="opacity:1;fill:#00a948;fill-opacity:1;stroke:none;stroke-width:5.55885;stroke-linecap:round;stroke-linejoin:round;stroke-dasharray:none;stroke-opacity:1;paint-order:stroke fill markers"
     d="m 9.1591928,0.00397291 c -1.595369,0.006 -2.552966,0.0186 -2.784803,0.0368 -1.184618,0.0926 -2.158467,0.39252 -3.089358,0.95189 C 1.5608668,2.028713 0.38924178,3.779073 0.08964678,5.766133 c -0.119196,0.79054 -0.119681,18.112766 -5.43e-4,18.902925 0.463572,3.074484 2.99366302,5.451103 6.09054302,5.721006 0.29048,0.0253 4.5182102,0.04122 9.3952002,0.0357 l 8.86723,-0.0097 0.542029,-0.123308 c 1.392613,-0.316925 2.481882,-0.901075 3.42529,-1.836697 1.035039,-1.026489 1.713647,-2.35857 1.929022,-3.786965 0.118585,-0.786487 0.118585,-18.112131 0,-18.898611 -0.215375,-1.4284 -0.893983,-2.76048 -1.929022,-3.78697 -0.943297,-0.93551 -2.072215,-1.54002009 -3.438812,-1.84157009 -0.521411,-0.11505 -0.638881,-0.11705 -9.200996,-0.13737 -2.782075,-0.006 -5.015025,-0.006 -6.6103952,-5.5e-4 z M 12.129544,3.503233 c 0.05625,-0.009 0.108295,-0.002 0.164446,0.0156 0.188247,0.0597 0.235821,0.26978 0.142812,0.63062 -0.0742,0.28786 -0.259437,1.3051 -0.326733,1.79343 l -0.02812,0.20065 0.926645,0.032 c 0.541298,0.0186 1.199336,0.0795 1.582816,0.14657 l 0.65617,0.11465 0.538785,-0.3867 c 0.642608,-0.46126 1.674739,-1.05701 1.965808,-1.13469 0.17511,-0.0466 0.226925,-0.0393 0.322405,0.0472 0.154102,0.13942 0.142769,0.35862 -0.0303,0.58896 -0.241631,0.32163 -0.512378,0.75643 -0.69025,1.10872 l -0.169318,0.33534 0.15417,0.0584 c 0.234158,0.0895 0.274954,0.0841 0.939088,-0.13253 0.339875,-0.11086 0.88689,-0.25567 1.215511,-0.32178 0.546893,-0.11005 0.628025,-0.14361 0.958561,-0.39375 0.775623,-0.58694 1.587341,-0.88787 2.405599,-0.8913 0.653073,-0.002 1.090014,0.10465 1.751592,0.42998 0.468574,0.23038 1.471002,0.92345 1.626092,1.1244 0.127751,0.16553 0.08202,0.38 -0.118467,0.55599 -0.580733,0.50978 -1.370121,0.9615 -2.063721,1.18118 -0.52672,0.16685 -1.403649,0.17284 -1.89981,0.0131 -0.644073,-0.20749 -1.334021,-0.677 -1.890076,-1.28611 l -0.157416,-0.17253 -0.388943,0.0823 c -0.572428,0.1205 -1.084531,0.26252 -1.082978,0.3007 7.45e-4,0.0184 0.319886,0.18942 0.709184,0.37966 0.725432,0.35453 2.286478,1.26084 2.652271,1.53979 0.284876,0.21724 0.417468,0.45621 0.417612,0.754477 1.55e-4,0.320353 -0.14258,0.602073 -0.388941,0.767984 -0.163041,0.109825 -0.248468,0.127743 -0.527966,0.110285 -0.28226,-0.0176 -0.386912,-0.05704 -0.67835,-0.255278 -0.189427,-0.128812 -0.35573,-0.234181 -0.369468,-0.234181 -0.01374,0 0.103982,0.197979 0.261278,0.439711 0.181028,0.278185 0.345056,0.465545 0.447364,0.510544 0.304857,0.134114 0.950443,0.586239 1.302064,0.911863 0.628442,0.581972 1.033148,1.256782 1.212807,2.022204 0.11209,0.477484 0.111481,1.447761 -0.0017,2.090892 -0.09958,0.566248 -0.348733,1.466053 -0.434923,1.570602 -0.110126,0.133577 -0.401457,0.07259 -0.833602,-0.173615 -1.16331,-0.662774 -1.881624,-1.359026 -2.326673,-2.255842 -0.478059,-0.96334 -0.443988,-2.254265 0.09304,-3.527368 l 0.187167,-0.443488 -0.235851,-0.362907 c -0.291097,-0.448468 -0.80489,-1.101663 -1.177651,-1.497043 -0.306066,-0.32465 -0.605697,-0.49518 -1.587683,-0.90321 l -0.639402,-0.26555 -0.04813,0.62196 c -0.05818,0.751999 0.02843,1.94009 0.171481,2.354828 0.08208,0.237982 0.171659,0.349555 0.519311,0.645762 1.096275,0.934058 1.771815,2.170969 1.774853,3.249366 7.13e-4,0.252837 0.01563,0.292056 0.110354,0.292056 0.06015,0 0.195216,0.08593 0.300226,0.190921 0.260255,0.260197 0.309876,0.555308 0.148761,0.888055 l -0.119009,0.245542 0.398681,0.796663 c 0.469946,0.938868 0.839658,1.596904 1.931187,3.43704 0.954115,1.608486 1.726066,3.083886 1.924694,3.678258 0.162749,0.487006 0.188408,1.018404 0.06113,1.264487 -0.112632,0.217756 -0.38292,0.433534 -0.629124,0.501901 -0.458353,0.127274 -1.113574,0.02236 -1.645565,-0.262847 -0.155852,-0.08354 -0.496608,-0.364277 -0.756784,-0.624133 -0.76985,-0.768889 -1.430051,-1.817423 -2.830242,-4.494387 -0.716772,-1.370362 -1.300842,-2.427452 -1.400518,-2.533842 -0.02696,-0.0288 -0.168464,-0.04563 -0.314291,-0.03781 -0.542223,0.0288 -0.891953,-0.427794 -0.745966,-0.973506 0.0689,-0.257556 0.06742,-0.261899 -0.113599,-0.449985 -0.100584,-0.104505 -0.412937,-0.365712 -0.694038,-0.580324 l -0.511197,-0.390489 -0.433841,0.231484 c -0.649028,0.345987 -1.215418,0.744131 -1.192791,0.838302 0.05169,0.215135 0.01315,0.621679 -0.07141,0.750691 -0.13717,0.209301 -0.417663,0.358342 -0.674563,0.358572 h -0.225574 l -0.476577,0.819921 c -0.261893,0.450915 -0.788699,1.382496 -1.170614,2.070341 -2.0558092,3.702583 -2.6699992,4.531087 -3.7639202,5.073626 -0.667628,0.33111 -1.496806,0.272597 -1.861405,-0.130883 -0.219803,-0.24325 -0.280336,-0.481504 -0.238558,-0.942151 0.04208,-0.463942 0.269133,-0.945889 1.439464,-3.055744 1.483015,-2.673562 2.029969,-3.686877 2.545163,-4.716679 0.454737,-0.90895 0.454608,-0.909695 0.367847,-1.092491 -0.177805,-0.374618 -0.05543,-0.823113 0.280752,-1.030852 0.157874,-0.09754 0.188904,-0.150089 0.190955,-0.320715 0.0059,-0.489463 0.276758,-0.920274 0.845503,-1.344526 0.2216722,-0.165358 0.4120122,-0.306119 0.4230212,-0.313157 0.01104,-0.0069 -0.121788,-0.207483 -0.2953592,-0.44511 -0.771408,-1.056096 -1.089264,-2.141977 -1.091093,-3.729105 -5.85e-4,-0.50993 -0.02273,-0.8475 -0.05517,-0.8475 -0.08538,0 -1.147798,0.54449 -1.549277,0.79396 -0.200596,0.12466 -0.640068,0.43126 -0.976411,0.680921 -0.760622,0.564617 -0.79392,0.581947 -1.12301,0.581947 -0.500672,0 -0.850759,-0.359461 -0.850371,-0.872908 2.64e-4,-0.33996 0.122637,-0.54101 0.540407,-0.88862 1.122246,-0.93374 2.619424,-1.76396 4.073885,-2.25908 l 0.583684,-0.19904 0.295899,-0.48892 c 0.4643612,-0.76768 0.8659182,-1.27487 1.5200652,-1.91943 0.452748,-0.44613 0.657303,-0.6153 0.82603,-0.64198 z m -0.577733,1.39428 c -0.03285,-0.0329 -0.505003,0.51046 -0.787622,0.90646 -0.35971,0.50398 -0.729048,1.21633 -0.9169102,1.76853 -0.44895,1.3197 -0.44838,2.866251 0.0017,4.099042 0.2677382,0.733473 0.5638722,1.178135 1.2171372,1.828037 0.608459,0.60534 1.119094,0.974009 2.67499,1.93135 0.97108,0.597499 1.656283,1.087726 2.137829,1.52842 l 0.386779,0.353705 1.086225,-0.628456 1.086226,-0.628458 -0.0065,-0.432127 c -0.0124,-0.786829 -0.388548,-1.588877 -1.091093,-2.328318 -0.695231,-0.731749 -1.305219,-1.123441 -2.460235,-1.579257 -1.236664,-0.488039 -1.76653,-0.793216 -2.317967,-1.334257 -0.399985,-0.39246 -0.521277,-0.554891 -0.70702,-0.944851 -0.123376,-0.25901 -0.263325,-0.62081 -0.310504,-0.80423 -0.216874,-0.84317 -0.235931,-1.96097 -0.0541,-3.17204 0.04481,-0.29843 0.07252,-0.55215 0.06113,-0.56355 z m 11.430785,1.09953 c -0.453575,-0.006 -0.936107,0.0895 -1.280965,0.27151 l -0.205561,0.10868 0.222329,0.002 c 0.670398,0.007 1.444324,0.25303 1.531968,0.48351 0.06802,0.17884 -0.02506,0.397 -0.186628,0.43753 -0.07389,0.0186 -0.288408,-0.0196 -0.488477,-0.0872 -0.245644,-0.0827 -0.555502,-0.12932 -0.995886,-0.15035 l -0.639401,-0.0308 0.105489,0.11954 c 0.203038,0.22843 0.869126,0.6393 1.242019,0.76636 0.786204,0.26787 1.667314,0.12227 2.54895,-0.42077 0.656316,-0.40427 0.651895,-0.38457 0.164449,-0.72149 -0.476962,-0.32965 -1.010094,-0.59162 -1.432974,-0.70416 -0.178549,-0.0477 -0.379135,-0.0719 -0.585307,-0.0753 z m -6.270136,0.28609 c -0.03215,0.004 -0.159967,0.0753 -0.302931,0.17146 l -0.286703,0.19309 0.156876,0.0573 c 0.08639,0.0316 0.182016,0.059 0.212592,0.0611 0.05777,0.004 0.267733,-0.44082 0.2272,-0.48135 -0.0012,-9.2e-4 -0.0037,-0.002 -0.007,-0.002 z m -4.695435,0.52626 v 0.23094 0.23094 h 0.664285 c 1.957541,0 4.142027,0.60333 6.451896,1.78205 0.666831,0.34031 1.652378,0.918261 2.065884,1.210964 0.26907,0.190453 0.390134,0.213756 0.489017,0.09461 0.126846,-0.152816 0.001,-0.284643 -0.678349,-0.709054 -2.894829,-1.80844 -5.495792,-2.71097 -8.089347,-2.80695 z m -2.9043532,0.60086 c -0.07564,-0.005 -0.289288,0.0888 -0.807095,0.30774 -0.860097,0.36365 -1.847173,0.93336 -2.618192,1.51112 -0.677158,0.50742 -0.796428,0.64747 -0.676187,0.792321 0.108457,0.130653 0.213383,0.102666 0.493346,-0.129781 0.736097,-0.61132 1.932167,-1.33757 2.864323,-1.73991 0.332671,-0.14358 0.624294,-0.28157 0.648057,-0.30665 0.02375,-0.0251 0.06873,-0.14085 0.100072,-0.2569 0.02992,-0.11074 0.05452,-0.17407 -0.0044,-0.17794 z m 2.9665622,0.51381 0.0806,0.3548 c 0.04428,0.19492 0.181527,0.56066 0.305095,0.81288 0.123571,0.25221 0.244402,0.45864 0.268852,0.45864 0.02445,0 0.09223,-0.1058 0.150384,-0.23473 0.05815,-0.12897 0.262056,-0.47121 0.452775,-0.76042 0.190718,-0.28924 0.333983,-0.53847 0.318617,-0.55383 -0.01536,-0.0155 -0.376427,-0.0389 -0.802226,-0.0524 z m 2.432647,0.19308 -0.227198,0.28555 c -0.440442,0.55376 -1.024249,1.589021 -0.971545,1.723132 0.05199,0.132314 0.877706,0.568584 1.76133,0.930789 0.504515,0.206794 0.93635,0.377696 0.959643,0.379674 0.0233,0.0023 0.0233,-0.102696 0,-0.232565 -0.02329,-0.129927 -0.04119,-0.792966 -0.04003,-1.4738 l 0.0022,-1.23798 -0.363518,-0.10811 c -0.19991,-0.0594 -0.533867,-0.14355 -0.74218,-0.18713 z m -0.579355,4.167183 c 0.04495,0.0023 0.09137,0.0057 0.139024,0.01184 0.697199,0.09557 1.090296,0.847231 0.78762,1.506242 -0.121463,0.264443 -0.245791,0.382944 -0.521474,0.49811 -0.612032,0.25567 -1.339367,-0.108595 -1.464347,-0.73339 -0.06919,-0.345863 0.02438,-0.674995 0.266687,-0.937817 0.226871,-0.246067 0.477836,-0.356283 0.79249,-0.345048 z m 6.837052,0.190372 -0.164991,0.524621 c -0.220359,0.701226 -0.235037,1.545416 -0.03678,2.119004 0.2487,0.719566 0.82662,1.38716 1.706151,1.970289 0.244614,0.162179 0.461602,0.295783 0.481985,0.296924 0.02038,9.2e-4 0.0938,-0.229403 0.163367,-0.512177 0.100898,-0.410094 0.127252,-0.677348 0.129827,-1.320194 0.0037,-0.925464 -0.08791,-1.29436 -0.464133,-1.872388 -0.203096,-0.312042 -0.812671,-0.962152 -0.902302,-0.962152 -0.02415,0 0.0063,0.117726 0.06814,0.261752 0.192081,0.44802 0.328897,1.027128 0.328897,1.394294 0,0.448753 -0.06204,0.567369 -0.294276,0.566265 -0.293543,-9.2e-4 -0.337131,-0.06339 -0.379206,-0.537598 -0.04206,-0.474217 -0.181943,-0.94603 -0.458182,-1.54302 z m -6.862477,0.4662 c -0.06393,0 -0.177571,0.0613 -0.252623,0.136299 -0.173154,0.173111 -0.173154,0.332029 0,0.50514 0.07504,0.07509 0.188689,0.136839 0.252623,0.136839 0.149991,0 0.389483,-0.239443 0.389483,-0.389415 0,-0.149961 -0.239492,-0.388863 -0.389483,-0.388863 z m -3.176452,1.267197 -0.426808,0.325038 c -0.4673732,0.355878 -0.6772682,0.67213 -0.6772682,1.020032 v 0.198482 l 1.1533022,0.673355 c 0.634468,0.370293 1.172652,0.675634 1.195498,0.678753 0.02283,0.0028 0.197751,-0.109548 0.388942,-0.250407 0.191189,-0.140863 0.529155,-0.355803 0.750838,-0.477567 0.22168,-0.121754 0.401838,-0.237812 0.400842,-0.257978 -10e-4,-0.02015 -0.316432,-0.22395 -0.70107,-0.453224 -0.384638,-0.229286 -1.011012,-0.650879 -1.39186,-0.936735 z m -1.5963392,2.023281 c -0.05045,0.0096 -0.09939,0.07112 -0.108732,0.136291 -0.01399,0.09767 0.07417,0.170027 0.500377,0.41104 0.284534,0.160901 0.5610092,0.330072 0.6145202,0.37589 0.111676,0.09562 0.129154,0.345729 0.03084,0.444031 -0.07654,0.07654 -0.3301162,0.08888 -0.4084162,0.02006 -0.02904,-0.02558 -0.171358,-0.113447 -0.315917,-0.195785 l -0.262899,-0.149815 -0.34134,0.682535 c -0.508819,1.016812 -1.160765,2.228979 -2.429941,4.517645 -1.218573,2.197431 -1.535826,2.823801 -1.596879,3.154185 -0.05166,0.279544 0.0067,0.480631 0.156333,0.540845 0.479124,0.19275 1.13224,-0.07121 1.764575,-0.712832 0.647724,-0.657235 1.138772,-1.43778 2.957907,-4.705318 0.4425102,-0.794831 0.9322512,-1.65721 1.0883902,-1.916192 l 0.283998,-0.470539 -0.272639,-0.157377 c -0.149971,-0.08656 -0.288976,-0.207259 -0.308341,-0.268256 -0.04708,-0.148249 0.11293,-0.38346 0.260737,-0.38346 0.06447,0 0.335999,0.12514 0.603159,0.277991 0.267159,0.15286 0.527433,0.277456 0.578273,0.277456 0.141403,0 0.173732,-0.162465 0.05463,-0.273666 -0.190577,-0.177948 -2.7549362,-1.622526 -2.8486372,-1.604679 z m 9.9274922,0.249332 c -0.09756,-0.0083 -0.49737,0.199201 -1.498969,0.776644 -1.175021,0.677428 -1.431019,0.84649 -1.431352,0.94539 -2.24e-4,0.06624 0.03101,0.13125 0.06925,0.144948 0.09018,0.03229 0.06647,0.0449 1.642862,-0.862646 1.34797,-0.776072 1.453177,-0.861651 1.233363,-1.000012 -0.004,-0.0028 -0.0087,-0.0037 -0.01514,-0.0046 z m -0.144975,1.113588 c -0.02363,-0.0037 -0.04717,0.0064 -0.07681,0.02162 -0.0682,0.03551 -0.469058,0.263803 -0.890943,0.507311 -0.740771,0.427565 -0.764579,0.446682 -0.68917,0.56193 0.212266,0.324414 0.815619,1.418221 1.429727,2.592797 1.28026,2.448684 1.887709,3.428079 2.580867,4.159062 0.406363,0.428539 0.714647,0.641778 1.102994,0.763129 0.451763,0.141156 0.848082,0.06173 0.909334,-0.182263 0.117992,-0.470024 -0.354231,-1.462464 -2.149729,-4.517103 -1.086254,-1.84802 -1.370596,-2.35685 -1.830571,-3.274255 -0.24279,-0.484235 -0.314847,-0.62059 -0.385696,-0.632239 z" /></svg>
