<?xml version="1.0" encoding="UTF-8" standalone="no"?>
<svg
   viewBox="0 0 108.109 30"
   x="0px"
   y="0px"
   version="1.1"
   id="svg10"
   sodipodi:docname="logo.svg"
   width="108.109"
   height="30"
   inkscape:version="1.2.2 (732a01da63, 2022-12-09)"
   inkscape:export-filename="asset\rumahpetani_logo.svg"
   inkscape:export-xdpi="96"
   inkscape:export-ydpi="96"
   xml:space="preserve"
   xmlns:inkscape="http://www.inkscape.org/namespaces/inkscape"
   xmlns:sodipodi="http://sodipodi.sourceforge.net/DTD/sodipodi-0.dtd"
   xmlns="http://www.w3.org/2000/svg"
   xmlns:svg="http://www.w3.org/2000/svg"><sodipodi:namedview
     id="namedview4421"
     pagecolor="#505050"
     bordercolor="#eeeeee"
     borderopacity="1"
     inkscape:showpageshadow="0"
     inkscape:pageopacity="0"
     inkscape:pagecheckerboard="0"
     inkscape:deskcolor="#505050"
     showgrid="false"
     inkscape:zoom="4"
     inkscape:cx="59.875"
     inkscape:cy="11"
     inkscape:window-width="1366"
     inkscape:window-height="705"
     inkscape:window-x="-8"
     inkscape:window-y="-8"
     inkscape:window-maximized="1"
     inkscape:current-layer="g949" /><defs
     id="defs14"><clipPath
       clipPathUnits="userSpaceOnUse"
       id="clipPath1639"><g
         id="g1643"><rect
           style="fill:none;stroke:#000000;stroke-width:2.97851;stroke-linecap:round;stroke-dasharray:none"
           id="rect1641"
           width="72.021484"
           height="72.021484"
           x="1.2187272"
           y="1.2187271" /></g></clipPath><clipPath
       clipPathUnits="userSpaceOnUse"
       id="clipPath1645"><g
         id="g1649"><rect
           style="fill:none;stroke:#000000;stroke-width:2.97851;stroke-linecap:round;stroke-dasharray:none"
           id="rect1647"
           width="72.021484"
           height="72.021484"
           x="1.2187272"
           y="1.2187271" /></g></clipPath><clipPath
       clipPathUnits="userSpaceOnUse"
       id="clipPath1651"><g
         id="g1655"><rect
           style="fill:none;stroke:#000000;stroke-width:2.97851;stroke-linecap:round;stroke-dasharray:none"
           id="rect1653"
           width="72.021484"
           height="72.021484"
           x="1.2187272"
           y="1.2187271" /></g></clipPath><clipPath
       clipPathUnits="userSpaceOnUse"
       id="clipPath1657"><g
         id="g1661"><rect
           style="fill:none;stroke:#000000;stroke-width:2.97851;stroke-linecap:round;stroke-dasharray:none"
           id="rect1659"
           width="72.021484"
           height="72.021484"
           x="1.2187272"
           y="1.2187271" /></g></clipPath><clipPath
       clipPathUnits="userSpaceOnUse"
       id="clipPath1663"><g
         id="g1667"><rect
           style="fill:none;stroke:#000000;stroke-width:2.97851;stroke-linecap:round;stroke-dasharray:none"
           id="rect1665"
           width="72.021484"
           height="72.021484"
           x="1.2187272"
           y="1.2187271" /></g></clipPath><clipPath
       clipPathUnits="userSpaceOnUse"
       id="clipPath1669"><g
         id="g1673"><rect
           style="fill:none;stroke:#000000;stroke-width:2.97851;stroke-linecap:round;stroke-dasharray:none"
           id="rect1671"
           width="72.021484"
           height="72.021484"
           x="1.2187272"
           y="1.2187271" /></g></clipPath><clipPath
       clipPathUnits="userSpaceOnUse"
       id="clipPath1675"><g
         id="g1679"><rect
           style="fill:none;stroke:#000000;stroke-width:2.97851;stroke-linecap:round;stroke-dasharray:none"
           id="rect1677"
           width="72.021484"
           height="72.021484"
           x="1.2187272"
           y="1.2187271" /></g></clipPath><clipPath
       clipPathUnits="userSpaceOnUse"
       id="clipPath1681"><g
         id="g1685"><rect
           style="fill:none;stroke:#000000;stroke-width:2.97851;stroke-linecap:round;stroke-dasharray:none"
           id="rect1683"
           width="72.021484"
           height="72.021484"
           x="1.2187272"
           y="1.2187271" /></g></clipPath><clipPath
       clipPathUnits="userSpaceOnUse"
       id="clipPath1687"><g
         id="g1691"
         transform="matrix(0.74074074,0,0,0.71873907,4.2222214,3.6171625)"><rect
           style="fill:none;stroke:#000000;stroke-width:2.97851;stroke-linecap:round;stroke-dasharray:none"
           id="rect1689"
           width="72.021484"
           height="72.021484"
           x="1.2187272"
           y="1.2187271" /></g></clipPath></defs><g
     id="g4"
     transform="matrix(1.35,0,0,1.3913255,-5.6997567,-5.0324082)"
     inkscape:export-filename="..\..\..\..\..\..\Users\asus\Desktop\rumahpetani3.png"
     inkscape:export-xdpi="96"
     inkscape:export-ydpi="96"
     clip-path="url(#clipPath1687)"
     style="display:none;fill:#1a1a1a"><path
       d="m 34.224,28.061 c -0.279407,-0.472062 -0.126369,-1.081091 0.343,-1.365 1.634619,-0.930911 3.639504,-0.928629 5.272,0.006 1.226304,0.676094 0.105257,2.492852 -1.049,1.7 -0.996741,-0.549811 -2.206715,-0.54603 -3.2,0.01 -0.474363,0.278686 -1.084747,0.121845 -1.366,-0.351 z m -5.307,0.493 c 1.015982,0.0024 1.387718,-1.336144 0.516,-1.858 -1.634512,-0.931316 -3.639612,-0.929034 -5.272,0.006 -1.226304,0.676094 -0.105257,2.492852 1.049,1.7 0.997035,-0.548661 2.206413,-0.544882 3.2,0.01 0.153281,0.09177 0.32835,0.140805 0.507,0.142 z m 6.808,6.813 c -0.287942,-0.471478 -0.903645,-0.620142 -1.375,-0.332 -2.691,1.644 -4.469,0.181 -4.56,0.1 -0.995987,-0.886446 -2.325987,0.607554 -1.33,1.494 0.961666,0.778177 2.162941,1.199683 3.4,1.193 1.254157,-0.02477 2.476311,-0.400281 3.528,-1.084 0.470835,-0.28613 0.62153,-0.899196 0.337,-1.371 z M 62,61 c 0,0.552285 -0.447715,1 -1,1 H 3 C 2.4477153,62 2,61.552285 2,61 2,46.7 22.748,45.7 22.958,45.692 c 0.04341,0.0037 0.08652,0.01034 0.129,0.02 0.199313,-0.842853 0.479962,-1.664371 0.838,-2.453 -3.732,-2.479 -5.149,-6.648 -5.666,-9.977 h -0.046 c -0.48844,-7.13e-4 -0.904896,-0.354173 -0.985,-0.836 -0.181666,-1.225081 -0.275904,-2.461538 -0.282,-3.7 0.0017,-0.53143 0.421042,-0.967548 0.952,-0.99 0,-1.582 0.061,-2.931 0.115,-3.76 H 7 C 4.2222214,24.0494 4.2222214,24.0494 6.411,22.188 l 25,-18.214 c 0.351,-0.2558226 0.827,-0.2558226 1.178,0 l 25,18.214 c 2.188777,1.861395 2.188777,1.861395 2.188777,1.861395 L 45.987,24 c 0.054,0.829 0.118,2.178 0.115,3.76 0.530958,0.02245 0.950336,0.45857 0.952,0.99 -0.0061,1.238462 -0.100334,2.474919 -0.282,3.7 -0.0801,0.481827 -0.49656,0.835287 -0.985,0.836 h -0.046 c -0.517,3.329 -1.935,7.5 -5.667,9.976 0.358984,0.788798 0.640311,1.610676 0.84,2.454 0.04213,-0.0097 0.08491,-0.01642 0.128,-0.02 C 41.252,45.7 62,46.7 62,61 Z M 44.929,22 33.494,13.668 30.679,15.6 39.636,22 Z m 9,0 -15.8,-11.51 -2.888,1.979 L 48.326,22 Z m -29.215,-10.669 4.234,3.028 2.831,-1.94 -1.209,-0.88 c -1.077637,-0.78539 0.100363,-2.4023899 1.178,-1.617 l 1.781,1.3 L 36.417,9.243 32,6.023 Z m 2.477,4.231 -4.181,-2.989 -2.359,1.718 4.108,2.938 z M 10.07,22 H 36.2 l -7.273,-5.2 -5.562,3.811 c -1.1,0.754 -2.231,-0.896 -1.131,-1.65 L 23,18.432 18.99,15.565 c -0.015,-0.01 -0.022,-0.027 -0.037,-0.039 z M 31.9,43.393 H 32 c 0.0333,-0.0021 0.0667,-0.0021 0.1,0 8.877,0 11.336,-6.36 11.833,-11.706 0.206256,-2.557613 0.2223,-5.127011 0.048,-7.687 H 20.019 c -0.172769,2.560079 -0.155723,5.129438 0.051,7.687 0.497,5.346 2.957,11.705 11.83,11.706 z M 25.7,44.2 c -0.52,1.182 -1.541,4.082 -0.394,6.632 0.946,2.1 3.205,3.58 6.7,4.394 3.491,-0.814 5.75,-2.289 6.7,-4.394 1.148,-2.551 0.125,-5.451 -0.395,-6.632 -1.960723,0.826125 -4.072712,1.232513 -6.2,1.193 h -0.2 C 29.780032,45.433906 27.664167,45.027494 25.7,44.2 Z M 59.958,60 C 59.035,49.3 43.358,47.853 41.206,47.7 c 0.09152,1.346861 -0.141684,2.696008 -0.68,3.934 -1.237,2.764 -4.033,4.647 -8.309,5.595 -0.06994,0.01544 -0.141372,0.02316 -0.213,0.023 H 32 C 31.92837,57.252156 31.856944,57.2444 31.787,57.229 27.511,56.281 24.715,54.398 23.478,51.634 22.939684,50.396008 22.706481,49.046861 22.798,47.7 20.639,47.853 4.965,49.3 4.042,60 H 14 v -4 c 0,-1.333333 2,-1.333333 2,0 v 4 h 32 c -0.353317,-6.350045 2,-7.168809 2,0 z"
       id="path2"
       sodipodi:nodetypes="cccccccccccccccccccssssccccccccccccccccccccccccscccccccccccccccccccccccccccccccccccccccccccccccccccccsscccccsscccc"
       style="fill:#1a1a1a" /></g><path
     style="display:none;fill:#808000;stroke:#000000;stroke-width:0;stroke-linecap:round"
     d="M 8.1011948,25.489059 C 8.366243,25.246641 19.683875,16.803514 19.807226,16.75618 c 0.08391,-0.0322 1.240815,0.753642 2.790288,1.89533 l 2.646948,1.950335 -0.631204,0.477299 c -0.725236,0.548407 -0.88739,0.809532 -0.889487,1.432377 -0.0035,1.04411 1.043128,1.744511 1.92524,1.288354 0.158316,-0.08187 1.944003,-1.318728 3.968195,-2.748577 2.024193,-1.42985 3.705266,-2.599727 3.73572,-2.599727 0.07353,0 9.60938,7.029639 9.60938,7.083842 0,0.02316 -7.865509,0.0421 -17.47891,0.0421 -9.900588,0 -17.4369805,-0.03835 -17.3822012,-0.08845 z"
     id="path1022"
     clip-path="url(#clipPath1681)"
     transform="translate(2.4223328e-4,2.4223328e-4)" /><path
     style="display:none;fill:#808000;stroke:#000000;stroke-width:0;stroke-linecap:round"
     d="m 25.003,16.855999 c -1.493816,-1.098902 -2.679397,-2.030398 -2.634624,-2.069991 0.04477,-0.03959 0.735995,-0.562094 1.536049,-1.161115 l 1.454643,-1.08913 0.53044,0.386828 c 2.534018,1.847956 4.912125,3.621595 4.93197,3.678362 0.01921,0.05495 -2.471792,1.877544 -2.978222,2.179083 -0.0762,0.04537 -1.174321,-0.698519 -2.840256,-1.924037 z"
     id="path1024"
     clip-path="url(#clipPath1675)"
     transform="translate(2.4223328e-4,2.4223328e-4)" /><path
     style="display:none;fill:#808000;stroke:#000000;stroke-width:0;stroke-linecap:round"
     d="M 30.74641,12.936142 C 29.318678,11.878998 28.061104,10.954056 27.951803,10.880716 27.769765,10.758569 28.1631,10.439709 32.634614,7.0845697 L 37.516156,3.4217712 40.41738,5.598968 c 1.595673,1.1974581 2.885402,2.2085161 2.866067,2.2467954 -0.01934,0.038283 -0.863082,0.6532194 -1.87499,1.3665338 L 39.568622,10.509233 39.254931,10.273394 C 37.051387,8.6167254 36.950298,8.5513868 36.514773,8.5022967 c -0.833051,-0.093899 -1.509765,0.5082112 -1.509765,1.3433172 0,0.6802521 0.191885,0.9591381 1.157803,1.6827491 0.486437,0.364408 0.885987,0.685467 0.88789,0.713462 0.0031,0.04682 -3.327521,2.416102 -3.59211,2.555236 -0.06397,0.03364 -1.284447,-0.803777 -2.712181,-1.860919 z"
     id="path1026"
     clip-path="url(#clipPath1669)"
     transform="translate(2.4223328e-4,2.4223328e-4)" /><path
     style="display:none;fill:#808000;stroke:#000000;stroke-width:0;stroke-linecap:round"
     d="m 42.097013,21.294751 c -3.191402,-2.353394 -5.907319,-4.357368 -6.035368,-4.453277 -0.232349,-0.174028 -0.2291,-0.177015 1.608781,-1.479131 l 1.841601,-1.304751 7.629489,5.721452 c 4.196218,3.146798 7.629489,5.738781 7.629489,5.759959 0,0.02118 -1.546074,0.03763 -3.435721,0.03657 l -3.43572,-0.0019 -5.802551,-4.278897 z"
     id="path1028"
     clip-path="url(#clipPath1663)"
     transform="translate(2.4223328e-4,2.4223328e-4)" /><path
     style="display:none;fill:#808000;stroke:#000000;stroke-width:0;stroke-linecap:round"
     d="m 50.831,18.97937 c -4.826504,-3.621666 -8.777583,-6.61425 -8.780174,-6.650188 -0.0026,-0.03594 0.83267,-0.656324 1.856137,-1.378634 l 1.86085,-1.3132914 10.626369,7.9701264 10.62637,7.970128 -3.707045,-0.0067 -3.707044,-0.0067 z"
     id="path1030"
     clip-path="url(#clipPath1657)"
     transform="translate(2.4223328e-4,2.4223328e-4)" /><path
     style="display:none;fill:#ffffff;stroke:#000000;stroke-width:0;stroke-linecap:round"
     d="M 35.174673,55.183101 C 30.682129,54.730365 26.97219,52.638197 24.720746,49.287759 22.790864,46.415843 21.721437,42.826761 21.371643,38.047903 21.237716,36.218193 21.205152,30.425594 21.321999,29.21683 l 0.07626,-0.788944 h 16.111123 16.111122 l 0.06573,0.992541 c 0.101874,1.538398 0.07856,6.515647 -0.039,8.323816 -0.265678,4.086608 -0.990151,7.110107 -2.346765,9.793944 -2.014893,3.986134 -5.267667,6.464216 -9.654973,7.355515 -1.916477,0.389339 -4.384027,0.499697 -6.470826,0.289399 z m 3.965116,-7.789421 c 0.842612,-0.188822 2.186876,-0.742172 2.752259,-1.132934 0.527084,-0.364291 0.86666,-0.877117 0.86666,-1.308826 0,-0.827438 -0.583201,-1.456621 -1.350872,-1.457382 -0.251565,-2.04e-4 -0.693322,0.155079 -1.282273,0.450868 -0.494171,0.248187 -1.175559,0.523045 -1.514196,0.610795 -1.366408,0.354072 -2.810215,0.114433 -3.93398,-0.652948 -0.501858,-0.342703 -0.681403,-0.409096 -1.106317,-0.409096 -0.453477,0 -0.549117,0.04189 -0.902453,0.39522 -0.357114,0.357114 -0.395219,0.445938 -0.395219,0.921248 0,0.709234 0.178055,1.007886 0.904853,1.517706 1.736991,1.21843 3.707237,1.570521 5.961538,1.065349 z M 28.56692,34.441173 c 1.23642,-0.612983 2.418021,-0.617326 3.792779,-0.01394 0.820172,0.359975 1.154112,0.3857 1.638007,0.126185 0.693808,-0.372094 0.937777,-1.395775 0.489823,-2.055277 -0.427733,-0.629731 -1.976882,-1.241711 -3.500391,-1.382805 -1.646234,-0.152459 -4.023605,0.591512 -4.573884,1.431344 -0.259946,0.396727 -0.29703,0.989353 -0.0893,1.427102 0.380353,0.801533 1.217236,0.975923 2.242972,0.467391 z m 14.00482,9.98e-4 c 1.353843,-0.613862 2.530662,-0.617471 3.8251,-0.01174 0.893736,0.418231 1.423928,0.416641 1.904959,-0.0057 0.589099,-0.517236 0.670257,-1.285431 0.210011,-1.987854 -0.08706,-0.132874 -0.420767,-0.373948 -0.741567,-0.53572 -1.929893,-0.973201 -4.054861,-1.052395 -6.041936,-0.225173 -1.043731,0.434506 -1.337942,0.755131 -1.386439,1.510903 -0.04493,0.700289 0.198031,1.177434 0.713709,1.401614 0.487917,0.212112 0.78992,0.182964 1.516163,-0.14633 z"
     id="path1101"
     clip-path="url(#clipPath1651)"
     transform="translate(2.4223328e-4,2.4223328e-4)" /><path
     style="display:none;fill:#ffffff;stroke:#000000;stroke-width:0;stroke-linecap:round"
     d="m 37.312455,71.714067 c -0.61679,-0.124095 -2.879086,-0.921646 -3.702528,-1.305292 -4.299932,-2.003362 -6.253981,-5.328339 -5.708352,-9.713236 0.130192,-1.046271 0.505284,-2.555249 0.864857,-3.479275 l 0.265574,-0.68247 0.526355,0.210362 c 2.474985,0.989152 4.846488,1.409075 7.957692,1.409075 2.902287,0 5.360766,-0.408293 7.544177,-1.252905 0.621116,-0.240267 0.925774,-0.314248 0.970875,-0.235761 0.196842,0.342559 0.725155,2.045178 0.913993,2.945574 0.287624,1.371407 0.310957,3.346445 0.05315,4.498342 -0.234499,1.04773 -1.036452,2.690231 -1.670984,3.422385 -1.040952,1.201101 -2.122242,2.007426 -3.739239,2.788374 -1.431369,0.691297 -3.850218,1.480403 -4.275563,1.394827 z"
     id="path1103"
     clip-path="url(#clipPath1645)"
     transform="translate(2.4223328e-4,2.4223328e-4)" /><path
     style="display:none;fill:#666666;stroke:#000000;stroke-width:0;stroke-linecap:round"
     d="m -0.14593555,77.927712 c 0.3338897,-2.407433 1.0634571,-4.358489 2.36650085,-6.328651 0.6428967,-0.97204 2.2551939,-2.693105 3.3417756,-3.567215 2.6242795,-2.111125 6.4214811,-3.921187 10.6658651,-5.084241 2.498331,-0.684596 5.726805,-1.283775 8.028511,-1.490026 l 0.788943,-0.07069 v 1.03941 c 0,1.910332 0.600596,4.071094 1.588868,5.716254 0.621046,1.033846 2.091089,2.596936 3.177015,3.378103 0.9844,0.708136 2.575721,1.554144 3.846283,2.044835 1.19625,0.461993 3.388604,1.079206 3.833361,1.079206 0.476743,0 2.680709,-0.615424 3.847006,-1.074217 2.767938,-1.088842 5.031686,-2.681418 6.407198,-4.50755 1.388048,-1.842774 2.241055,-4.416738 2.241055,-6.762417 v -0.916011 l 0.738043,0.06911 c 6.109299,0.572116 12.601194,2.562903 16.618709,5.096249 4.54599,2.86659 7.176971,6.652594 7.765244,11.174253 l 0.08939,0.687143 h -6.650444 c -62.0690369,0.03562 -0.02574,0.03562 -62.0863065,0 h -6.67408059 z"
     id="path1105"
     clip-path="url(#clipPath1639)"
     sodipodi:nodetypes="ssssscsssssssscsssccccs"
     transform="translate(2.4223328e-4,2.4223328e-4)" /><rect
     style="display:none;fill:none;stroke:#1a1a1a;stroke-width:2.979;stroke-linecap:round;stroke-dasharray:none;stroke-opacity:1"
     id="rect1940-7"
     width="72.021484"
     height="72.021484"
     x="1.4895"
     y="1.4895" /><g
     id="g949"
     transform="matrix(1.0038079,0,0,1.0038079,-0.07117606,-0.07092563)"
     style="stroke-width:0.996207"><g
       id="g1767"
       transform="matrix(0.93750003,0,0,0.93750003,0.00455412,0.00441556)"
       style="stroke-width:1.06262"><text
         xml:space="preserve"
         style="font-size:22.3654px;line-height:0.7;font-family:'Adobe Gothic Std';-inkscape-font-specification:'Adobe Gothic Std, Normal';fill:#808000;fill-opacity:1;stroke:#000000;stroke-width:0;stroke-linecap:round;stroke-dasharray:none"
         x="31.113432"
         y="14.701447"
         id="text1230"
         transform="scale(1.0077429,0.9923166)"
         inkscape:label="rumah petani"><tspan
           sodipodi:role="line"
           id="tspan1228"
           x="31.113432"
           y="14.701447"
           style="font-style:normal;font-variant:normal;font-weight:bold;font-stretch:normal;font-size:20.9002px;font-family:Montserrat;-inkscape-font-specification:'Montserrat Bold';fill:#333333;fill-opacity:1;stroke-width:0;stroke-dasharray:none">RUMAH</tspan><tspan
           style="font-style:normal;font-variant:normal;font-weight:bold;font-stretch:normal;font-family:Montserrat;-inkscape-font-specification:'Montserrat Bold';fill:#808000;fill-opacity:1;stroke-width:0;stroke-dasharray:none"
           sodipodi:role="line"
           id="tspan1822"
           x="31.113432"
           y="32.196644"><tspan
             id="tspan1826"
             style="font-style:normal;font-variant:normal;font-weight:bold;font-stretch:normal;font-family:Montserrat;-inkscape-font-specification:'Montserrat Bold';fill:#333333;fill-opacity:1;stroke-width:0;stroke-dasharray:none">PETA</tspan><tspan
             style="font-style:italic;font-variant:normal;font-weight:bold;font-stretch:normal;font-size:20.9002px;font-family:Montserrat;-inkscape-font-specification:'Montserrat Bold Italic';fill:#808080;fill-opacity:1;stroke-width:0;stroke-dasharray:none"
             id="tspan3235">ni</tspan></tspan><tspan
           sodipodi:role="line"
           x="31.113432"
           y="49.773758"
           style="font-style:normal;font-variant:normal;font-weight:bold;font-stretch:normal;font-size:16.4535px;font-family:Montserrat;-inkscape-font-specification:'Montserrat Bold';fill:#808000;fill-opacity:1;stroke-width:0;stroke-dasharray:none"
           id="tspan1774" /></text><g
         id="g3487"
         inkscape:label="black"
         style="fill:#333333;stroke-width:0;stroke-dasharray:none"
         transform="matrix(0.42547647,0,0,0.42504661,0.07080923,0.07065738)"><path
           style="fill:#333333;fill-opacity:1;stroke:#1a1a1a;stroke-width:0;stroke-linecap:round;stroke-dasharray:none;stroke-opacity:1"
           d="M 0,37.476659 V 0 h 37.476659 37.47666 v 37.476659 37.47666 H 37.476659 0 Z m 30.317203,34.250649 c -1.115613,-0.812801 -2.82003,-2.561793 -3.47515,-3.566031 -0.874262,-1.340164 -1.531017,-3.425512 -1.677017,-5.324907 l -0.114903,-1.494857 h -0.614147 c -1.972354,0 -7.997754,1.272676 -10.912569,2.304937 -3.9176028,1.387389 -7.4264219,3.460782 -9.5017472,5.614664 -1.1205134,1.162929 -1.1932427,1.287944 -1.1932427,2.051094 v 0.812683 l 14.0095529,-0.0056 14.009553,-0.0056 z m 41.807688,-0.47307 c 0,-0.84667 -0.03531,-0.905493 -1.281631,-2.135321 -2.875801,-2.837738 -7.482695,-5.152427 -13.175361,-6.619833 -1.610296,-0.415088 -6.122923,-1.157571 -7.035424,-1.157571 h -0.781447 l -0.0031,1.016466 c -0.007,2.308721 -0.978254,5.043734 -2.447546,6.891995 -0.665774,0.837497 -1.673677,1.73853 -2.859481,2.556286 -0.411001,0.283435 0.342252,0.300602 13.574406,0.30936 l 14.00956,0.0093 z m -32.350135,-0.05591 c 1.882186,-0.653762 3.224713,-1.359382 4.343819,-2.283072 2.515202,-2.076002 3.605732,-5.095477 3.082878,-8.535923 -0.183399,-1.206796 -0.890288,-3.697263 -1.112491,-3.919466 -0.03999,-0.03999 -0.597226,0.124733 -1.238317,0.366039 -2.078711,0.782424 -4.423977,1.156855 -7.246015,1.156855 -2.959833,0 -4.907417,-0.292981 -7.105962,-1.068971 -0.848903,-0.299625 -1.566459,-0.519767 -1.594566,-0.489203 -0.02811,0.03056 -0.269504,0.731743 -0.536431,1.558174 -0.643179,1.991331 -0.807792,5.068817 -0.355436,6.644993 0.582785,2.030643 1.936898,3.771899 3.894945,5.008519 1.326425,0.837713 2.007883,1.143814 3.978489,1.78708 1.651962,0.539252 1.696079,0.536699 3.889087,-0.225025 z M 3.4639415,66.271918 c 0.6210297,-0.687672 3.6803479,-2.603415 5.7360666,-3.591921 3.5498889,-1.706984 8.2363829,-3.053651 12.9854669,-3.731383 0.972272,-0.13875 2.145627,-0.253731 2.607456,-0.255513 0.679705,-0.0026 0.840141,-0.06218 0.842055,-0.312598 0.0012,-0.170147 0.236046,-0.980774 0.521657,-1.801391 l 0.519293,-1.492034 -0.389075,-0.266026 C 26.072869,54.674737 25.353096,54.033586 24.687366,53.396269 22.076169,50.896526 20.124455,47.02641 19.311235,42.735766 19.086467,41.549861 18.951377,41.18897 18.732236,41.18897 c -0.157207,0 -0.460844,-0.186294 -0.674751,-0.413988 -0.448005,-0.476878 -0.729784,-2.365387 -0.732027,-4.906109 -0.0014,-1.57946 0.126035,-1.876535 0.926736,-2.160495 0.267742,-0.09495 0.309359,-0.356833 0.309359,-1.94674 0,-1.010367 0.05059,-2.206106 0.112416,-2.657199 l 0.112417,-0.820168 H 10.807407 2.8284271 v 19.180272 c 0,10.549149 0.06722,19.180271 0.1493784,19.180271 0.082158,0 0.3009194,-0.167804 0.486136,-0.372896 z M 72.124891,47.464543 V 28.284271 h -7.866562 -7.866563 v 2.642004 2.642005 l 0.484525,0.232227 c 0.848613,0.406729 0.944368,0.869888 0.745505,3.605961 -0.206589,2.842365 -0.372503,3.384139 -1.133774,3.702219 -0.50795,0.212234 -0.566866,0.328463 -0.771557,1.522134 -0.308006,1.796153 -1.300101,4.671812 -2.23878,6.489267 -0.966969,1.872231 -2.711726,4.068735 -4.131961,5.201798 l -1.06159,0.846935 0.282436,0.655666 c 0.155341,0.360616 0.416389,1.132964 0.580107,1.716327 l 0.297671,1.06066 1.396582,0.124333 c 4.583623,0.408064 10.21613,1.819118 14.124505,3.538468 1.997961,0.878932 4.429524,2.305287 5.92202,3.473855 0.631976,0.494814 1.168936,0.901241 1.193242,0.903173 0.02431,0.0019 0.04419,-8.627611 0.04419,-19.17676 z M 40.987547,55.132 c 3.510578,-0.503046 6.726221,-2.29389 8.790553,-4.895604 1.735615,-2.187424 3.132925,-5.759966 3.689256,-9.432426 0.335982,-2.21789 0.549059,-8.432141 0.370183,-10.796126 L 53.70712,28.284271 H 37.481482 21.255845 l -0.12698,2.370821 c -0.229559,4.286059 0.148416,9.555251 0.907798,12.655198 1.242287,5.071275 3.768603,8.553585 7.61438,10.495765 2.820195,1.424245 7.131465,1.928503 11.336504,1.325945 z M 18.812104,14.0387 33.646734,2.9168155 18.45855,2.8711791 C 10.105051,2.8460792 3.170932,2.8634697 3.049398,2.9098252 2.8757449,2.9760597 2.8284271,5.4603123 2.8284271,14.511122 V 26.028137 L 3.4029514,25.594361 C 3.7189397,25.355783 10.653059,20.155736 18.812104,14.0387 Z M 72.066274,2.8876606 C 72.032616,2.8540021 65.114676,2.8467928 56.693076,2.8716393 L 41.381075,2.9168155 56.708788,14.433868 72.036503,25.950921 72.081988,14.449889 C 72.107003,8.1243217 72.099932,2.9213189 72.066272,2.8876606 Z M 43.122094,25.500038 c -0.01648,-0.191292 -9.623934,-7.197809 -9.815827,-7.158475 -0.08835,0.01811 -1.852093,1.227226 -3.919429,2.686926 -2.067334,1.4597 -3.940192,2.699529 -4.161903,2.755175 -0.634839,0.159334 -1.360081,-0.511813 -1.360081,-1.258634 0,-0.599314 0.09975,-0.732637 1.203893,-1.609165 l 0.408399,-0.324207 -2.264554,-1.666023 c -1.245505,-0.916313 -2.503649,-1.844996 -2.795875,-2.063742 l -0.531322,-0.39772 -5.993974,4.495124 c -3.296685,2.47232 -6.0340678,4.53522 -6.0830726,4.584225 -0.049005,0.049 7.8791106,0.0891 17.6180326,0.0891 9.738923,0 17.701994,-0.05966 17.695713,-0.132584 z m 11.855458,0.04582 c 0,-0.08669 -14.482112,-10.994674 -15.155766,-11.415378 -0.317259,-0.198131 -0.560488,-0.07933 -2.227243,1.087859 -1.0291,0.720655 -1.84944,1.385059 -1.82298,1.476455 0.02646,0.0914 2.707982,2.133915 5.958934,4.538934 l 5.910822,4.372761 3.668117,0.01306 c 2.017464,0.0072 3.668116,-0.02598 3.668116,-0.0737 z M 66.992055,25.389502 C 66.535377,24.960581 46.123813,9.7059029 45.882845,9.6134345 c -0.270763,-0.1039016 -3.89838,2.4256195 -3.89838,2.7183225 0,0.108655 3.931151,3.145799 8.735891,6.749208 l 8.735888,6.551656 h 3.897331 c 3.314847,0 3.858643,-0.03634 3.63848,-0.243119 z m -37.484804,-7.57925 c 0.875959,-0.60767 1.592016,-1.144629 1.591238,-1.193243 -0.0019,-0.119763 -5.396296,-4.047186 -5.640886,-4.106892 -0.18796,-0.04588 -3.348191,2.161139 -3.34939,2.339125 -0.0011,0.153543 5.370386,4.051047 5.593476,4.058629 0.117103,0.004 0.929605,-0.489949 1.805562,-1.097619 z m 5.726745,-4.047904 c 0.990397,-0.695019 1.866748,-1.321868 1.947446,-1.392999 0.0807,-0.07113 -0.336936,-0.501498 -0.928077,-0.956371 -0.964275,-0.741991 -1.074803,-0.892718 -1.074803,-1.4657014 0,-0.3512636 0.131653,-0.7841365 0.292564,-0.9619398 0.527595,-0.5829865 1.248489,-0.4037024 2.665651,0.6629399 0.720671,0.5424203 1.410059,0.9479413 1.531975,0.9011573 0.387495,-0.148695 3.818607,-2.6152674 3.811493,-2.740021 -0.0083,-0.146182 -5.624002,-4.3421706 -5.905043,-4.4122095 -0.216329,-0.053912 -9.918281,7.1523165 -9.896513,7.3507415 0.0117,0.106607 5.562201,4.271159 5.699152,4.276081 0.03049,0.0011 0.865758,-0.566659 1.856155,-1.261678 z"
           id="path3475" /><path
           style="fill:#333333;fill-opacity:1;stroke:#1a1a1a;stroke-width:0;stroke-linecap:round;stroke-dasharray:none;stroke-opacity:1"
           d="m 35.933346,47.366598 c -1.794198,-0.354117 -3.583211,-1.57875 -3.583211,-2.452816 0,-0.640219 0.668764,-1.249938 1.37098,-1.249938 0.303984,0 0.602565,0.08069 0.663513,0.179302 0.06095,0.09862 0.443504,0.352975 0.850123,0.56524 0.564549,0.294709 1.052705,0.387099 2.065132,0.390856 1.131168,0.0042 1.50393,-0.07879 2.538915,-0.565239 1.40614,-0.660894 1.920344,-0.707094 2.410832,-0.216606 0.462987,0.462987 0.449748,1.244294 -0.02981,1.759035 -0.518421,0.55646 -2.31001,1.347381 -3.586669,1.583384 -1.17633,0.217457 -1.626657,0.218588 -2.699809,0.0068 z"
           id="path3477" /><path
           style="fill:#333333;fill-opacity:1;stroke:#1a1a1a;stroke-width:0;stroke-linecap:round;stroke-dasharray:none;stroke-opacity:1"
           d="m 40.947645,34.281848 c -0.492455,-0.387365 -0.619838,-1.13677 -0.29606,-1.741754 0.562644,-1.05131 4.169114,-1.596347 6.086983,-0.919911 1.59029,0.560899 2.165241,1.23566 1.842283,2.162099 -0.244856,0.702393 -0.909451,0.992729 -1.612179,0.7043 -1.870448,-0.767713 -3.032279,-0.811196 -4.453877,-0.166692 -0.899591,0.407843 -1.003506,0.405321 -1.56715,-0.03804 z"
           id="path3479" /><path
           style="fill:#333333;fill-opacity:1;stroke:#1a1a1a;stroke-width:0;stroke-linecap:round;stroke-dasharray:none;stroke-opacity:1"
           d="m 26.724096,34.239091 c -0.540023,-0.574828 -0.507631,-1.412783 0.07225,-1.868913 1.516797,-1.193114 4.512969,-1.430539 6.48103,-0.513575 1.217941,0.567465 1.536897,1.080123 1.191224,1.914652 -0.342033,0.825739 -0.931896,0.974677 -2.014941,0.508764 -1.206009,-0.518811 -2.738907,-0.525026 -3.882495,-0.01574 -1.090355,0.485578 -1.370818,0.481754 -1.847063,-0.02519 z"
           id="path3481" /></g><g
         id="g3585"
         inkscape:label="green"
         style="stroke-width:2.49873"
         transform="matrix(0.42547647,0,0,0.42504661,0.07080923,0.07065738)"><path
           style="fill:#008000;fill-opacity:1;stroke:#1a1a1a;stroke-width:0;stroke-linecap:round;stroke-dasharray:none;stroke-opacity:1"
           d="M 9.5028014,24.504852 C 10.17976,23.981806 12.793228,22.008421 15.310507,20.119551 l 4.576871,-3.434308 2.620745,1.93866 2.620745,1.938659 -0.720395,0.699218 c -0.792448,0.769152 -0.918077,1.358293 -0.436316,2.046103 0.367746,0.525031 0.933423,0.729445 1.464577,0.529244 0.232557,-0.08766 2.022421,-1.257981 3.977476,-2.600724 1.955053,-1.342743 3.646362,-2.493813 3.758462,-2.557932 0.198785,-0.113703 3.860976,2.407855 7.734302,5.325361 l 1.927714,1.452012 H 25.553328 8.2719673 Z"
           id="path3570" /><path
           style="fill:#008000;fill-opacity:1;stroke:#1a1a1a;stroke-width:0;stroke-linecap:round;stroke-dasharray:none;stroke-opacity:1"
           d="m 41.931911,21.157941 c -3.140174,-2.351672 -5.725073,-4.355316 -5.744218,-4.452543 -0.03477,-0.176573 1.848833,-1.665114 2.857507,-2.258181 l 0.533427,-0.313638 7.213327,5.413875 c 3.967329,2.977631 7.32981,5.52514 7.472179,5.661132 0.222155,0.212207 -0.228921,0.245689 -3.181982,0.236189 l -3.440832,-0.01107 z"
           id="path3572" /><path
           style="fill:#008000;fill-opacity:1;stroke:#1a1a1a;stroke-width:0;stroke-linecap:round;stroke-dasharray:none;stroke-opacity:1"
           d="m 52.41429,20.128968 c -9.566855,-7.200934 -10.247612,-7.74992 -9.956053,-8.028903 0.553948,-0.530054 3.033055,-2.2005701 3.265726,-2.2005701 0.140357,0 1.464452,0.8909201 2.942431,1.9798221 2.494634,1.837923 17.200279,12.867482 17.799388,13.349934 0.212346,0.170999 -0.478913,0.216042 -3.356502,0.218716 l -3.623922,0.0034 -7.071068,-5.322365 z"
           id="path3574" /><path
           style="fill:#008000;fill-opacity:1;stroke:#1a1a1a;stroke-width:0;stroke-linecap:round;stroke-dasharray:none;stroke-opacity:1"
           d="m 30.622669,12.789257 -2.698267,-2.027134 0.931235,-0.756361 c 0.975241,-0.792103 5.579614,-4.2159492 7.573829,-5.6319567 l 1.162516,-0.8254529 2.769967,2.0707169 c 1.523483,1.1388943 2.770327,2.1272407 2.770766,2.1963253 0.0013,0.205234 -3.244033,2.4376534 -3.543693,2.4376534 -0.151554,0 -0.782583,-0.3570315 -1.402286,-0.7934037 C 37.567032,9.0232722 36.781674,8.6140257 36.441495,8.5502077 35.912398,8.4509485 35.763633,8.50318 35.412387,8.9115276 c -0.703921,0.818357 -0.559943,1.4476244 0.569897,2.4907734 l 0.980497,0.905266 -1.64341,1.154408 c -0.903876,0.634925 -1.723291,1.19941 -1.820923,1.254412 -0.09763,0.055 -1.391733,-0.812207 -2.875779,-1.92713 z"
           id="path3576" /><path
           style="fill:#008000;fill-opacity:1;stroke:#1a1a1a;stroke-width:0;stroke-linecap:round;stroke-dasharray:none;stroke-opacity:1"
           d="m 27.135223,18.347834 c -3.08373,-2.205498 -4.684583,-3.406065 -4.684583,-3.513225 0,-0.071 0.672192,-0.585694 1.493759,-1.143763 l 1.493759,-1.01467 2.660493,1.91323 c 1.463272,1.052277 2.660488,1.958852 2.66048,2.014611 -1.3e-5,0.09587 -2.917347,2.140602 -3.037148,2.128712 -0.03104,-0.0031 -0.295079,-0.176283 -0.58676,-0.384895 z"
           id="path3578" /></g><g
         id="g3662"
         style="display:inline;stroke-width:2.49873"
         inkscape:label="white"
         transform="matrix(0.42547647,0,0,0.42504661,0.07080923,0.07065738)"><path
           style="fill:#ffffff;fill-opacity:1;stroke:#1a1a1a;stroke-width:0;stroke-linecap:round;stroke-dasharray:none;stroke-opacity:1"
           d="M 33.322407,54.807567 C 31.450932,54.406662 30.151503,53.918983 28.822676,53.118805 25.07919,50.864597 22.685061,46.705806 21.733279,40.803969 21.427362,38.907029 21.151411,29.790588 21.373164,28.907053 l 0.11194,-0.446005 h 16.083312 16.083311 l 0.0166,1.811961 c 0.07405,8.086705 -0.235691,11.269456 -1.44193,14.816466 -0.551918,1.622945 -1.795521,3.974472 -2.727728,5.157853 -1.902232,2.414762 -5.243135,4.236414 -8.663252,4.723694 -2.006606,0.28589 -5.80074,0.203344 -7.51301,-0.163455 z m 6.413439,-7.594802 c 1.370723,-0.471598 2.363565,-1.014394 2.678879,-1.464568 0.438285,-0.62574 0.35436,-1.467391 -0.188935,-1.894746 -0.605715,-0.476455 -0.728523,-0.466969 -2.333196,0.180212 -1.942721,0.783518 -3.507535,0.779768 -4.910059,-0.01177 -1.141387,-0.644159 -1.980055,-0.629822 -2.450542,0.04189 -0.678441,0.96861 -0.130944,1.950265 1.548434,2.776319 1.918423,0.943638 3.661917,1.058523 5.655419,0.372658 z m -11.18641,-12.74131 c 1.077045,-0.424531 2.749771,-0.465024 3.651189,-0.08839 0.674628,0.281878 1.613034,0.344863 1.935007,0.129876 0.30247,-0.201965 0.600989,-0.858926 0.600989,-1.322618 0,-0.553249 -0.782855,-1.284189 -1.770273,-1.652878 -1.820184,-0.679632 -5.158706,-0.292973 -6.256727,0.724639 -0.617238,0.572037 -0.628152,1.52524 -0.02437,2.129017 0.525491,0.525491 0.714226,0.533626 1.86419,0.08035 z m 14.099838,-8.9e-5 c 1.177535,-0.447557 2.534679,-0.450038 3.822427,-0.007 1.45772,0.50153 2.300989,0.08019 2.300989,-1.149698 0,-0.753527 -0.391463,-1.182142 -1.541722,-1.688045 -1.697949,-0.746784 -5.51613,-0.421087 -6.490901,0.553685 -0.532441,0.532441 -0.4705,1.662853 0.121162,2.211188 0.564972,0.523596 0.614713,0.525818 1.788045,0.07986 z"
           id="path3656" /><path
           style="fill:#ffffff;fill-opacity:1;stroke:#1a1a1a;stroke-width:0;stroke-linecap:round;stroke-dasharray:none;stroke-opacity:1"
           d="m 35.147561,70.987831 c -4.183135,-1.519241 -6.715838,-4.167551 -7.135728,-7.461444 -0.192631,-1.511118 0.06005,-3.990625 0.564931,-5.543631 0.205457,-0.631977 0.403987,-1.203226 0.441179,-1.269442 0.03719,-0.06622 0.722601,0.100489 1.523131,0.370456 2.404636,0.810928 3.66356,0.986675 7.023974,0.980552 3.310153,-0.006 4.798552,-0.22078 7.206436,-1.039754 l 1.270947,-0.432277 0.349208,1.181368 c 0.785772,2.658261 0.93879,4.760896 0.473608,6.507935 -0.606223,2.276734 -2.420388,4.499372 -4.620344,5.660647 -1.468469,0.775151 -4.049609,1.654063 -4.826523,1.643494 -0.356855,-0.0049 -1.378723,-0.273911 -2.270819,-0.597904 z"
           id="path3658" /></g><g
         id="g3739"
         inkscape:label="grey"
         style="stroke-width:2.49873"
         transform="matrix(0.42547647,0,0,0.42504661,0.07080923,0.07065738)"><path
           style="fill:#808080;fill-opacity:1;stroke:#1a1a1a;stroke-width:0;stroke-linecap:round;stroke-dasharray:none;stroke-opacity:1"
           d="m 2.9168155,71.588883 c 0,-0.742577 0.5170963,-1.541895 1.6983532,-2.625282 3.0519185,-2.799059 7.2425553,-4.852693 12.6359323,-6.192275 2.422498,-0.601689 6.051591,-1.253036 6.981505,-1.253036 0.673625,0 0.686705,0.02918 0.871567,1.944543 0.131163,1.358959 0.794108,3.436041 1.460777,4.576775 0.261941,0.448203 1.171428,1.510973 2.021088,2.361711 l 1.544834,1.546796 H 16.523843 c -13.560865,0 -13.6070275,-0.0012 -13.6070275,-0.359232 z"
           id="path3733" /><path
           style="fill:#808080;fill-opacity:1;stroke:#1a1a1a;stroke-width:0;stroke-linecap:round;stroke-dasharray:none;stroke-opacity:1"
           d="m 45.095238,71.799137 c -0.05064,-0.08194 0.272814,-0.420023 0.718787,-0.751301 2.363262,-1.755477 4.115607,-5.347332 4.122778,-8.450631 l 0.0026,-1.130794 1.281631,0.10883 c 4.012116,0.340689 9.805782,1.888127 13.343369,3.563898 2.277354,1.078792 4.830154,2.809525 6.203792,4.20601 0.916414,0.931655 1.135935,1.269074 1.216519,1.869877 l 0.09833,0.733089 H 58.635183 c -7.39633,0 -13.489305,-0.06704 -13.539945,-0.148978 z"
           id="path3735" /></g></g></g></svg>
