<?xml version="1.0" encoding="UTF-8" standalone="no"?>
<!-- Created with Inkscape (http://www.inkscape.org/) -->

<svg
   width="50.000004mm"
   height="50.000004mm"
   viewBox="0 0 50.000004 50.000004"
   version="1.1"
   id="svg1"
   xml:space="preserve"
   xmlns:inkscape="http://www.inkscape.org/namespaces/inkscape"
   xmlns:sodipodi="http://sodipodi.sourceforge.net/DTD/sodipodi-0.dtd"
   xmlns="http://www.w3.org/2000/svg"
   xmlns:svg="http://www.w3.org/2000/svg"><sodipodi:namedview
     id="namedview1"
     pagecolor="#ffffff"
     bordercolor="#000000"
     borderopacity="0.25"
     inkscape:showpageshadow="2"
     inkscape:pageopacity="0.0"
     inkscape:pagecheckerboard="0"
     inkscape:deskcolor="#d1d1d1"
     inkscape:document-units="mm"><inkscape:page
       x="0"
       y="0"
       width="50.000004"
       height="50.000004"
       id="page2"
       margin="0"
       bleed="0" /></sodipodi:namedview><defs
     id="defs1" /><g
     inkscape:label="Layer 1"
     inkscape:groupmode="layer"
     id="layer1"
     transform="translate(64.783913,-133.35894)"><g
       id="g3487"
       style="fill:#333333;stroke-width:0;stroke-dasharray:none"
       transform="matrix(0.66707797,0,0,0.66709863,-64.782965,133.35878)"><path
         id="path3475"
         style="fill:#333333;fill-opacity:1;stroke:#1a1a1a;stroke-width:0;stroke-linecap:round;stroke-dasharray:none;stroke-opacity:1"
         d="M -0.00142435,2.5446795e-4 V 37.475973 74.951692 H 37.475456 74.952336 V 37.475973 2.5446795e-4 H 37.475456 Z M 7.6666292,2.8615927 c 2.7929088,-0.007 6.6131578,-0.00278 10.7899078,0.00977 L 33.646307,2.9153039 18.812623,14.03839 C 10.653578,20.155426 3.7193358,25.35747 3.4033475,25.596048 L 2.8277557,26.025737 V 14.512025 c 0,-9.05081 0.045852,-11.5353695 0.2195054,-11.601604 0.060767,-0.023178 1.8264593,-0.041824 4.6193681,-0.048828 z m 49.0277398,0.00977 c 8.4216,-0.024847 15.336594,-0.01901 15.370252,0.014648 0.03366,0.033658 0.04453,5.2369737 0.01951,11.5625413 L 72.035354,25.952495 56.709002,14.433899 41.382651,2.9153039 Z M 37.573014,3.398704 c 0.281041,0.070039 5.898833,4.2630133 5.907133,4.4091953 0.0071,0.1247536 -3.422143,2.5905727 -3.809638,2.7392677 -0.121916,0.04678 -0.810988,-0.356021 -1.531659,-0.8984408 -1.417162,-1.0666423 -2.140615,-1.2470514 -2.66821,-0.6640649 -0.160911,0.1778033 -0.292673,0.6106539 -0.292673,0.9619175 0,0.5729832 0.108862,0.7228582 1.073137,1.4648492 0.591141,0.454873 1.012378,0.885904 0.931678,0.957034 -0.0807,0.07113 -0.960762,0.696588 -1.951159,1.391607 -0.990397,0.695019 -1.82311,1.265753 -1.8536,1.264653 -0.136951,-0.0049 -5.685684,-4.170752 -5.697384,-4.277359 -0.02177,-0.198425 9.676046,-7.402571 9.892375,-7.348659 z m 8.311936,6.2158424 c 0.240968,0.092468 20.649981,15.3475026 21.106659,15.7764236 0.220163,0.206779 -0.324064,0.239258 -3.638911,0.239258 h -3.89744 l -8.736313,-6.547875 c -4.80474,-3.603409 -8.736313,-6.644298 -8.736313,-6.752953 0,-0.292703 3.631555,-2.8187552 3.902318,-2.7148536 z M 25.456318,12.510064 c 0.24459,0.05971 5.641827,3.986697 5.643727,4.10646 7.78e-4,0.04861 -0.719113,0.583741 -1.595072,1.191411 -0.875957,0.60767 -1.687719,1.102637 -1.804822,1.098637 -0.22309,-0.0076 -5.59117,-3.904089 -5.59007,-4.057632 0.0012,-0.177986 3.158277,-2.384756 3.346237,-2.338876 z m 14.116633,1.542975 c 0.09346,-0.0015 0.169458,0.02859 0.248773,0.07813 0.673654,0.420704 15.155625,11.329366 15.155625,11.416056 0,0.04772 -1.650714,0.08044 -3.668178,0.07324 l -3.668178,-0.01465 -5.912011,-4.370133 C 38.47803,18.830662 35.79953,16.78605 35.77307,16.69465 c -0.02646,-0.0914 0.790355,-0.75396 1.819455,-1.474615 1.250067,-0.875392 1.700046,-1.162458 1.980426,-1.166996 z m -19.687191,2.412118 0.531691,0.395509 c 0.292226,0.218746 1.54953,1.149124 2.795035,2.065437 l 2.263344,1.665045 -0.404865,0.327149 c -1.104143,0.876528 -1.204841,1.007137 -1.204841,1.606451 0,0.746821 0.726094,1.419105 1.360933,1.259771 0.221711,-0.05565 2.093512,-1.294216 4.160846,-2.753916 2.067336,-1.4597 3.828601,-2.67233 3.916951,-2.69044 0.191893,-0.03933 9.802726,6.966937 9.819206,7.158229 0.0063,0.07292 -7.958086,0.131836 -17.697009,0.131836 -9.738922,0 -17.6679678,-0.03889 -17.6189628,-0.08789 C 7.857093,25.493332 10.59414,23.42968 13.890825,20.95736 Z M 2.8277557,28.286488 h 7.9802393 7.980239 l -0.112192,0.820315 c -0.06183,0.451093 -0.112192,1.645892 -0.112192,2.656259 0,1.589907 -0.04444,1.848417 -0.312185,1.943367 -0.800701,0.28396 -0.9282,0.583633 -0.9268,2.163093 0.0022,2.540722 0.283679,4.430366 0.731684,4.907244 0.213907,0.227694 0.520821,0.410158 0.678028,0.410158 0.219141,0 0.350824,0.361952 0.575592,1.547857 0.81322,4.290644 2.764245,8.159475 5.375442,10.659218 0.66573,0.637317 1.385958,1.279471 1.59995,1.425786 l 0.390232,0.268555 -0.517057,1.489264 c -0.285611,0.820617 -0.520735,1.631617 -0.521935,1.801764 -0.0019,0.250418 -0.164172,0.309901 -0.843877,0.312501 -0.461829,0.0018 -1.637402,0.12004 -2.609674,0.25879 -4.749084,0.677732 -9.435072,2.023498 -12.9849612,3.730482 -2.0557187,0.988506 -5.1153768,2.901208 -5.7364065,3.58888 -0.1852166,0.205092 -0.4007538,0.375978 -0.4829118,0.375978 -0.082158,0 -0.1512148,-8.630607 -0.1512148,-19.179756 z m 18.4286933,0 h 16.223885 16.228762 l 0.126825,1.723639 c 0.178876,2.363985 -0.03474,8.578046 -0.37072,10.795936 -0.556331,3.67246 -1.952075,7.241321 -3.68769,9.428745 -2.064332,2.601714 -5.279392,4.394432 -8.78997,4.897478 -4.205039,0.602558 -8.516036,0.09611 -11.336231,-1.32813 C 25.805533,51.861976 23.2792,48.38223 22.036913,43.310955 21.277531,40.211008 20.900065,34.940719 21.129624,30.65466 Z m 35.13549,0 h 7.868048 7.863169 v 19.179755 c 0,10.549149 -0.01959,19.176773 -0.0439,19.174873 -0.02431,-0.0019 -0.558231,-0.40851 -1.190207,-0.903324 -1.492496,-1.168568 -3.923805,-2.59276 -5.921766,-3.471692 -3.908375,-1.71935 -9.542766,-3.131987 -14.126389,-3.540051 l -1.395079,-0.126954 -0.297551,-1.059574 c -0.163718,-0.583363 -0.425129,-1.353257 -0.58047,-1.713873 l -0.282918,-0.659182 1.058504,-0.84473 c 1.420235,-1.133063 3.169487,-3.327983 4.136456,-5.200214 0.938679,-1.817455 1.930948,-4.693127 2.238954,-6.48928 0.204691,-1.193671 0.262758,-1.311209 0.770708,-1.523443 0.761271,-0.31808 0.925083,-0.85882 1.131672,-3.701185 0.198863,-2.736073 0.102295,-3.201683 -0.746318,-3.608412 L 56.39194,33.569709 v -2.64161 z m -26.077235,3.012706 c -1.343087,0.03099 -2.663766,0.398213 -3.516964,1.069339 -0.579881,0.45613 -0.613191,1.295296 -0.07317,1.870124 0.476245,0.506944 0.758367,0.509992 1.848722,0.02441 1.143588,-0.509286 2.671919,-0.504162 3.877928,0.01465 1.083045,0.465913 1.677417,0.317925 2.01945,-0.507814 0.345673,-0.834529 0.02286,-1.346605 -1.195085,-1.91407 -0.861027,-0.401172 -1.91626,-0.580746 -2.960883,-0.556642 z m 14.277603,0.02441 c -1.726377,0.01178 -3.554523,0.493049 -3.94134,1.215824 -0.323778,0.604984 -0.194904,1.355806 0.297551,1.743171 0.563644,0.443361 0.666214,0.446905 1.565805,0.03906 1.421598,-0.644504 2.583072,-0.601697 4.45352,0.166016 0.702728,0.288429 1.369728,-7.34e-4 1.614584,-0.703127 0.322958,-0.926439 -0.253555,-1.602195 -1.843845,-2.163094 -0.599334,-0.211386 -1.361558,-0.303209 -2.146275,-0.297852 z M 33.719475,43.662519 c -0.702216,0 -1.370689,0.609785 -1.370689,1.250004 0,0.874066 1.791057,2.101947 3.585255,2.456064 1.073152,0.211788 1.521146,0.207691 2.697476,-0.0098 1.276659,-0.236003 3.071711,-1.025577 3.590132,-1.582037 0.479558,-0.514741 0.492255,-1.294832 0.02927,-1.757819 -0.490488,-0.490488 -1.003541,-0.446049 -2.409681,0.214845 -1.034985,0.486449 -1.410216,0.570608 -2.541384,0.566408 -1.012427,-0.0038 -1.498802,-0.09592 -2.063351,-0.390626 -0.406619,-0.212265 -0.792682,-0.467789 -0.853632,-0.566409 -0.06095,-0.09861 -0.35941,-0.180664 -0.663394,-0.180664 z m -4.814484,12.763717 c 0.02811,-0.03056 0.74617,0.188658 1.595073,0.488283 2.198545,0.77599 4.142384,1.06934 7.102217,1.06934 2.822038,0 5.169844,-0.374807 7.248555,-1.157231 0.641091,-0.241306 1.198995,-0.406202 1.238985,-0.366212 0.222203,0.222203 0.928762,2.714116 1.112161,3.920912 0.522854,3.440446 -0.567629,6.459185 -3.082831,8.535187 -1.119106,0.92369 -2.46402,1.626519 -4.346206,2.280281 -2.193008,0.761724 -2.235721,0.763862 -3.887683,0.22461 -1.970606,-0.643266 -2.653939,-0.949402 -3.980364,-1.787115 -1.958047,-1.23662 -3.309777,-2.974258 -3.892562,-5.004901 -0.452356,-1.576176 -0.287092,-4.6542 0.356087,-6.645531 0.266927,-0.826431 0.508458,-1.527063 0.536568,-1.557623 z m -4.468153,4.917009 h 0.614615 l 0.112192,1.494146 c 0.146,1.899395 0.803734,3.982121 1.677996,5.322285 0.65512,1.004238 2.362327,2.756548 3.47794,3.569349 l 0.526813,0.385743 -14.009319,0.0049 -14.0093193,0.0049 v -0.81055 c 0,-0.76315 0.074571,-0.88786 1.1950847,-2.050789 2.0753253,-2.153882 5.58454,-4.227865 9.5021426,-5.615254 2.914815,-1.032261 8.939501,-2.304696 10.911855,-2.304696 z m 25.413842,0 h 0.780463 c 0.912501,0 5.428509,0.742143 7.038805,1.157231 5.692666,1.467406 10.299398,3.778497 13.175199,6.616235 1.246321,1.229828 1.278009,1.292009 1.278009,2.138679 v 0.869144 l -14.009319,-0.0098 C 44.881683,72.10601 44.127649,72.090585 44.53865,71.80715 c 1.185804,-0.817756 2.197552,-1.721106 2.863326,-2.558603 1.469292,-1.848261 2.436826,-4.580952 2.443826,-6.889673 z" /></g></g></svg>
